<svg width="28" height="27" viewBox="0 0 28 27" fill="none" xmlns="http://www.w3.org/2000/svg">
<path d="M1.5 22.125C1.5 20.4674 2.15848 18.8777 3.33058 17.7056C4.50268 16.5335 6.0924 15.875 7.75 15.875H20.25C21.9076 15.875 23.4973 16.5335 24.6694 17.7056C25.8415 18.8777 26.5 20.4674 26.5 22.125C26.5 22.9538 26.1708 23.7487 25.5847 24.3347C24.9987 24.9208 24.2038 25.25 23.375 25.25H4.625C3.7962 25.25 3.00134 24.9208 2.41529 24.3347C1.82924 23.7487 1.5 22.9538 1.5 22.125Z" stroke="white" stroke-width="3" stroke-linejoin="round"/>
<path d="M14 10.875C16.5888 10.875 18.6875 8.77633 18.6875 6.1875C18.6875 3.59867 16.5888 1.5 14 1.5C11.4112 1.5 9.3125 3.59867 9.3125 6.1875C9.3125 8.77633 11.4112 10.875 14 10.875Z" stroke="white" stroke-width="3"/>
</svg>
