<svg width="203" height="171" viewBox="0 0 203 171" fill="none" xmlns="http://www.w3.org/2000/svg">
<path d="M19.0093 20.3402L82.2865 2.8645L135.321 20.3402H152.189L155.806 44.4417L160.03 17.9388L199.814 13.1069V143.857C199.814 143.857 131.734 158.323 131.734 157.426C131.734 156.529 127.509 138.446 127.509 138.446L124.5 161.332L99.1835 167.958L57.6063 141.455L3.38525 151.698L16.0291 77.5704L19.0382 20.3113L19.0093 20.3402Z" fill="#DFD7CC"/>
<path d="M19.009 20.3402L82.2862 2.8645L57.5771 141.455L3.32715 151.698L15.9999 77.5704L19.009 20.3402Z" fill="#F9F2EA"/>
<path d="M135.292 20.34L126.612 123.632L131.676 157.426L199.785 143.856V13.1067L160.001 17.9096L155.777 44.4415L152.16 20.34H135.292Z" fill="#F9F2EA"/>
<path d="M98.6916 170.88L57.0276 144.319L0 155.083L13.2804 77.2809L16.3763 18.228L82.3153 0L135.726 17.5915H154.504L155.864 26.6476L157.658 15.4504L202.504 10.0109V146.027L200.363 146.489C131.907 161.014 131.328 160.58 129.997 159.509L128.985 158.699V157.397C128.927 157.108 128.638 155.719 128.204 153.723L126.931 163.473L98.7205 170.851L98.6916 170.88ZM58.1271 138.591L99.6175 165.036L122.012 159.162L126.728 123.285L130.113 137.809C132.283 147.126 133.354 151.929 133.875 154.475C142.612 153.057 175.105 146.316 197.065 141.658V16.1737L162.374 20.3691L155.719 62.2067L149.846 23.0599L134.453 22.9152L82.1996 5.69987L21.6132 22.4233L18.662 78.0332L6.65467 148.312L58.0981 138.591H58.1271Z" fill="#998F7E"/>
<path d="M90.3299 69.9609L88.4492 68.8903L94.6409 64.0874L93.6861 60.1814L71.2628 54.1343L86.4528 32.4054H78.9591L73.0856 39.1469L76.2104 28.9913L70.1055 27.1106L58.1271 50.6045L35.7037 44.5574L31.8267 50.373L53.3241 60.0078L42.7924 80.6083L51.3856 82.5469L63.8559 64.7239L91.8923 77.281L90.3299 69.9609Z" fill="#962000"/>
<path d="M91.2267 45.5989C90.7329 45.5946 90.2577 45.4102 89.8905 45.0802C89.5232 44.7502 89.2891 44.2974 89.2322 43.8069C89.1754 43.3164 89.2996 42.8221 89.5817 42.4168C89.8637 42.0115 90.2841 41.7232 90.7637 41.6061C90.7637 41.6061 92.5576 41.201 95.4509 40.5934C95.7131 40.5402 95.9832 40.5392 96.2457 40.5904C96.5083 40.6416 96.7582 40.744 96.9812 40.8917C97.2042 41.0395 97.3959 41.2297 97.5454 41.4516C97.6949 41.6734 97.7992 41.9226 97.8524 42.1847C97.9056 42.4469 97.9066 42.717 97.8554 42.9796C97.8043 43.2421 97.7018 43.4921 97.5541 43.7151C97.4063 43.9381 97.2161 44.1298 96.9942 44.2792C96.7723 44.4287 96.5232 44.533 96.261 44.5862C93.4545 45.1649 91.7185 45.5699 91.6896 45.5699C91.5374 45.6034 91.3824 45.6228 91.2267 45.6278V45.5989Z" fill="#825129"/>
<path d="M149.99 143.075C148.908 143.087 147.829 142.961 146.779 142.699L146.374 142.583C146.119 142.504 145.883 142.375 145.678 142.203C145.473 142.032 145.304 141.822 145.181 141.586C144.931 141.109 144.882 140.551 145.043 140.037C145.204 139.523 145.563 139.094 146.04 138.845C146.518 138.595 147.075 138.545 147.589 138.706C148.371 138.92 149.179 139.027 149.99 139.025C151.968 138.969 153.923 138.588 155.777 137.896C156.287 137.724 156.845 137.761 157.328 137.999C157.811 138.238 158.179 138.659 158.352 139.169C158.525 139.68 158.488 140.238 158.249 140.721C158.01 141.203 157.589 141.572 157.079 141.744C154.806 142.578 152.411 143.028 149.99 143.075ZM94.2069 141.773C92.2162 141.731 90.2674 141.194 88.5359 140.211C88.0602 139.958 87.7045 139.526 87.5471 139.01C87.3898 138.495 87.4436 137.938 87.6969 137.462C87.9501 136.987 88.382 136.631 88.8974 136.473C89.4129 136.316 89.9698 136.37 90.4455 136.623C91.478 137.322 92.6951 137.699 93.9421 137.704C95.189 137.709 96.4092 137.343 97.4474 136.652C97.8964 136.361 98.4416 136.258 98.9657 136.365C99.4898 136.472 99.9511 136.78 100.25 137.224C100.55 137.667 100.663 138.21 100.567 138.736C100.47 139.262 100.171 139.729 99.7331 140.037C98.1225 141.17 96.205 141.786 94.2358 141.802L94.2069 141.773ZM165.094 137.636C164.747 137.639 164.405 137.552 164.101 137.385C163.797 137.218 163.541 136.976 163.358 136.681C163.079 136.219 162.993 135.667 163.117 135.142C163.242 134.617 163.567 134.162 164.023 133.875C166.68 132.229 169.214 130.392 171.604 128.377C171.809 128.206 172.046 128.077 172.301 127.998C172.556 127.918 172.824 127.89 173.09 127.914C173.356 127.938 173.614 128.015 173.851 128.139C174.087 128.263 174.297 128.432 174.468 128.638C174.639 128.843 174.768 129.08 174.847 129.335C174.927 129.59 174.955 129.858 174.931 130.124C174.907 130.39 174.83 130.648 174.706 130.885C174.582 131.121 174.413 131.331 174.208 131.502C171.67 133.632 168.982 135.576 166.164 137.318C165.84 137.51 165.47 137.61 165.094 137.607V137.636ZM81.2737 135.437C80.9631 135.439 80.6562 135.37 80.3767 135.234C77.5992 133.859 74.7039 132.736 71.7257 131.878C71.4692 131.8 71.2306 131.673 71.0234 131.502C70.8163 131.332 70.6447 131.123 70.5184 130.887C70.3921 130.65 70.3137 130.391 70.2875 130.125C70.2613 129.858 70.2879 129.588 70.3658 129.332C70.4437 129.076 70.5713 128.837 70.7415 128.63C70.9116 128.423 71.1208 128.251 71.3572 128.125C71.5937 127.998 71.8527 127.92 72.1194 127.894C72.3862 127.868 72.6555 127.894 72.9119 127.972C76.1049 128.912 79.2119 130.122 82.1995 131.589C82.4395 131.706 82.6539 131.869 82.8304 132.07C83.007 132.27 83.1421 132.503 83.2282 132.756C83.3142 133.009 83.3495 133.276 83.3318 133.543C83.3142 133.809 83.244 134.069 83.1254 134.309C82.9595 134.65 82.7001 134.937 82.3775 135.137C82.0548 135.337 81.6821 135.441 81.3026 135.437H81.2737ZM141.947 135.032C141.486 135.033 141.039 134.875 140.681 134.585C140.323 134.295 140.075 133.891 139.979 133.441C139.326 130.194 138.891 126.908 138.677 123.603C138.631 123.066 138.801 122.533 139.148 122.12C139.495 121.708 139.992 121.45 140.529 121.404C141.066 121.358 141.6 121.527 142.012 121.875C142.424 122.222 142.682 122.719 142.728 123.256C142.943 126.374 143.349 129.475 143.943 132.544C144.003 132.804 144.011 133.073 143.966 133.337C143.921 133.6 143.825 133.852 143.682 134.078C143.54 134.304 143.354 134.499 143.136 134.653C142.917 134.807 142.671 134.916 142.41 134.974C142.258 135.009 142.103 135.029 141.947 135.032ZM104.478 132.891C104.147 132.886 103.82 132.807 103.523 132.659C103.05 132.404 102.696 131.972 102.539 131.458C102.382 130.943 102.434 130.387 102.684 129.911C104.131 127.191 105.462 124.037 106.59 121.317C106.806 120.833 107.202 120.451 107.693 120.253C108.185 120.054 108.735 120.055 109.226 120.254C109.718 120.452 110.113 120.834 110.328 121.319C110.544 121.804 110.562 122.353 110.381 122.851C109.223 125.657 107.834 128.927 106.301 131.82C106.127 132.145 105.869 132.416 105.553 132.605C105.237 132.793 104.875 132.892 104.507 132.891H104.478ZM62.901 129.708C62.775 129.709 62.6492 129.699 62.5249 129.679C59.8051 129.187 56.7961 128.724 53.0926 128.233C52.8213 128.205 52.5583 128.123 52.3191 127.992C52.0799 127.861 51.8694 127.683 51.6999 127.47C51.5305 127.256 51.4055 127.011 51.3324 126.748C51.2594 126.485 51.2396 126.21 51.2744 125.94C51.3092 125.669 51.3978 125.409 51.5349 125.173C51.6721 124.937 51.8551 124.731 52.0731 124.568C52.2911 124.404 52.5397 124.285 52.8042 124.219C53.0688 124.153 53.3439 124.14 53.6134 124.182C57.4037 124.674 60.4706 125.137 63.2771 125.657C63.5397 125.706 63.79 125.806 64.0138 125.952C64.2375 126.098 64.4302 126.286 64.5808 126.507C64.7314 126.727 64.8369 126.975 64.8912 127.237C64.9455 127.498 64.9476 127.768 64.8974 128.03C64.8096 128.495 64.5619 128.914 64.1972 129.215C63.8326 129.517 63.374 129.681 62.901 129.679V129.708ZM43.7761 127.075H43.5157C40.232 126.703 36.9753 126.124 33.7651 125.339C33.5061 125.272 33.2629 125.154 33.0497 124.992C32.8365 124.831 32.6574 124.628 32.5229 124.397C32.3884 124.165 32.301 123.91 32.266 123.644C32.2309 123.379 32.2487 123.109 32.3185 122.851C32.461 122.332 32.8016 121.89 33.2669 121.619C33.7322 121.348 34.2852 121.271 34.8067 121.404C37.8445 122.146 40.9277 122.687 44.0365 123.025C44.5736 123.059 45.0751 123.306 45.4305 123.71C45.7859 124.114 45.9661 124.643 45.9316 125.18C45.8971 125.717 45.6506 126.219 45.2463 126.574C44.8421 126.929 44.3132 127.11 43.7761 127.075ZM179.907 125.339C179.512 125.339 179.126 125.223 178.795 125.007C178.464 124.791 178.203 124.484 178.044 124.122C177.884 123.76 177.833 123.36 177.897 122.97C177.961 122.58 178.137 122.217 178.403 121.925C180.528 119.662 182.446 117.212 184.132 114.605C184.423 114.152 184.883 113.834 185.409 113.72C185.935 113.606 186.485 113.706 186.938 113.997C187.391 114.289 187.709 114.748 187.823 115.275C187.937 115.801 187.837 116.351 187.546 116.804C185.724 119.601 183.662 122.234 181.383 124.674C181.191 124.882 180.959 125.048 180.7 125.163C180.441 125.277 180.161 125.337 179.878 125.339H179.907ZM26.7343 120.189C26.2978 120.192 25.8722 120.052 25.5224 119.791C25.1725 119.53 24.9174 119.162 24.7958 118.742C24.5869 118.028 24.4798 117.288 24.4775 116.543C24.4863 115.981 24.5346 115.421 24.6222 114.865C25.075 112.425 25.9988 110.096 27.3419 108.008C27.6295 107.552 28.0846 107.227 28.6093 107.102C29.1341 106.978 29.6867 107.064 30.1485 107.343C30.3755 107.484 30.5723 107.669 30.7273 107.888C30.8824 108.106 30.9927 108.352 31.0519 108.613C31.1111 108.874 31.118 109.144 31.0722 109.408C31.0264 109.672 30.9288 109.923 30.785 110.149C29.7258 111.81 28.9896 113.655 28.615 115.589C28.56 115.904 28.5309 116.223 28.5282 116.543C28.5274 116.886 28.5761 117.227 28.6729 117.556C28.8297 118.074 28.7746 118.633 28.5197 119.111C28.2647 119.588 27.8307 119.945 27.313 120.102C27.1155 120.159 26.911 120.189 26.7054 120.189H26.7343ZM139.719 115.849C139.226 115.847 138.75 115.668 138.378 115.344C138.006 115.019 137.763 114.572 137.694 114.084C137.374 111.037 136.704 108.037 135.697 105.144C135.594 104.891 135.542 104.621 135.546 104.348C135.549 104.075 135.606 103.806 135.715 103.556C135.824 103.306 135.982 103.08 136.179 102.892C136.376 102.704 136.609 102.557 136.865 102.461C137.12 102.364 137.391 102.319 137.664 102.33C137.936 102.34 138.204 102.404 138.451 102.519C138.698 102.635 138.92 102.798 139.103 103.001C139.286 103.203 139.427 103.44 139.516 103.697C140.629 106.881 141.376 110.182 141.744 113.534C141.781 113.801 141.764 114.072 141.695 114.331C141.625 114.591 141.505 114.834 141.341 115.047C141.177 115.26 140.972 115.438 140.738 115.57C140.504 115.703 140.246 115.788 139.979 115.82H139.719V115.849ZM112.088 115.155C111.818 115.153 111.552 115.093 111.306 114.981C111.059 114.88 110.833 114.73 110.643 114.541C110.454 114.352 110.303 114.127 110.201 113.88C110.099 113.632 110.047 113.367 110.048 113.099C110.049 112.831 110.103 112.566 110.207 112.319C111.452 109.25 112.892 106.264 114.518 103.379C114.79 102.915 115.236 102.578 115.757 102.442C116.015 102.375 116.284 102.359 116.548 102.396C116.812 102.432 117.066 102.521 117.296 102.655C117.526 102.79 117.727 102.969 117.887 103.182C118.048 103.394 118.165 103.637 118.233 103.894C118.3 104.152 118.315 104.421 118.279 104.685C118.242 104.949 118.154 105.203 118.019 105.433C116.486 108.163 115.124 110.984 113.939 113.882C113.785 114.252 113.523 114.568 113.188 114.79C112.853 115.011 112.46 115.128 112.059 115.126L112.088 115.155ZM189.6 108.934C189.484 108.935 189.368 108.925 189.253 108.905C188.722 108.813 188.248 108.515 187.934 108.077C187.62 107.639 187.491 107.094 187.575 106.561C187.665 106.065 187.713 105.562 187.719 105.057C187.483 102.908 186.583 100.885 185.144 99.2703C184.981 99.0575 184.861 98.8146 184.792 98.5555C184.722 98.2964 184.704 98.0261 184.739 97.7602C184.774 97.4942 184.861 97.2377 184.995 97.0053C185.129 96.7729 185.308 96.5692 185.52 96.4059C185.733 96.2425 185.976 96.1226 186.235 96.0531C186.494 95.9836 186.765 95.9658 187.031 96.0007C187.297 96.0356 187.553 96.1226 187.785 96.2566C188.018 96.3907 188.221 96.5692 188.385 96.782C190.413 99.0854 191.624 101.995 191.828 105.057C191.831 105.785 191.763 106.512 191.625 107.227C191.542 107.699 191.298 108.127 190.933 108.439C190.569 108.75 190.108 108.925 189.629 108.934H189.6ZM35.5301 104.044C35.226 104.042 34.9261 103.974 34.6512 103.844C34.3763 103.714 34.1331 103.526 33.9387 103.292C33.7683 103.085 33.6406 102.847 33.5628 102.591C33.4851 102.335 33.4589 102.066 33.4858 101.799C33.5127 101.533 33.5922 101.275 33.7196 101.039C33.847 100.804 34.0198 100.596 34.2281 100.428C36.8444 98.3417 39.654 96.5106 42.6187 94.9592C42.8543 94.8338 43.1123 94.756 43.3779 94.7304C43.6435 94.7047 43.9116 94.7315 44.1668 94.8095C44.4221 94.8874 44.6595 95.0148 44.8655 95.1845C45.0715 95.3541 45.242 95.5627 45.3674 95.7983C45.4928 96.0338 45.5705 96.2918 45.5962 96.5574C45.6219 96.823 45.5951 97.0911 45.5171 97.3464C45.4392 97.6016 45.3118 97.839 45.1421 98.045C44.9725 98.251 44.7639 98.4215 44.5283 98.5469C41.7871 99.9706 39.1902 101.657 36.7742 103.581C36.4176 103.881 35.9668 104.045 35.5011 104.044H35.5301ZM122.59 99.3281C122.24 99.3305 121.896 99.241 121.591 99.0683C121.286 98.8957 121.032 98.646 120.854 98.3444C120.578 97.8839 120.497 97.3327 120.627 96.8119C120.757 96.291 121.089 95.8432 121.549 95.5668C123.855 94.1425 126.616 93.6462 129.274 94.178C130.449 94.396 131.588 94.7758 132.659 95.3064C132.899 95.4234 133.113 95.5873 133.289 95.7884C133.464 95.9894 133.598 96.2236 133.681 96.4771C133.765 96.7306 133.797 96.9982 133.775 97.2643C133.754 97.5303 133.679 97.7894 133.556 98.0261C133.314 98.5057 132.892 98.8695 132.382 99.0377C131.872 99.2059 131.316 99.1647 130.836 98.9231C130.116 98.5608 129.346 98.3073 128.551 98.1708C126.861 97.8105 125.097 98.1218 123.632 99.0388C123.319 99.231 122.958 99.3313 122.59 99.3281ZM79.3641 98.3444C78.9525 98.3454 78.5498 98.2246 78.2067 97.9972C75.6697 96.1887 73.0003 94.5736 70.2211 93.1653C69.9818 93.0475 69.7679 92.8838 69.5919 92.6833C69.4158 92.4829 69.2809 92.2498 69.1949 91.9972C69.109 91.7447 69.0736 91.4776 69.0908 91.2114C69.108 90.9452 69.1775 90.685 69.2953 90.4456C69.4131 90.2062 69.5768 89.9924 69.7773 89.8163C69.9777 89.6402 70.2108 89.5054 70.4634 89.4194C70.7159 89.3334 70.983 89.298 71.2492 89.3152C71.5154 89.3325 71.7756 89.4019 72.015 89.5197C74.9739 91.0238 77.8172 92.7452 80.5214 94.6699C80.9656 94.9775 81.2698 95.4486 81.3674 95.98C81.465 96.5115 81.348 97.0599 81.0422 97.5053C80.855 97.7786 80.6048 98.0027 80.3127 98.1588C80.0206 98.3149 79.6953 98.3984 79.3641 98.4023V98.3444ZM52.4561 94.9303C51.9757 94.9275 51.5116 94.7552 51.1458 94.4439C50.7799 94.1325 50.5357 93.702 50.4562 93.2282C50.3766 92.7544 50.4669 92.2678 50.711 91.854C50.9551 91.4402 51.3374 91.1259 51.7906 90.9664C54.9358 89.8444 58.1679 88.9832 61.4543 88.3913C61.7211 88.3366 61.9961 88.3363 62.263 88.3903C62.5299 88.4443 62.7832 88.5516 63.0076 88.7057C63.2321 88.8598 63.4232 89.0577 63.5695 89.2873C63.7158 89.517 63.8142 89.7738 63.859 90.0424C63.9038 90.311 63.8939 90.5859 63.83 90.8506C63.7661 91.1153 63.6495 91.3644 63.4872 91.583C63.3248 91.8016 63.12 91.9852 62.8851 92.1228C62.6502 92.2605 62.3899 92.3494 62.1198 92.3841C59.0563 92.9217 56.0455 93.7252 53.1215 94.7856C52.9084 94.8637 52.683 94.9028 52.4561 94.9013V94.9303ZM179.85 93.3389C179.398 93.337 178.96 93.1842 178.605 92.9049C176.152 90.9928 173.549 89.2803 170.822 87.7837C170.35 87.5267 170 87.0926 169.848 86.5772C169.696 86.0617 169.755 85.507 170.012 85.0351C170.269 84.5631 170.703 84.2127 171.219 84.0607C171.734 83.9088 172.289 83.9679 172.761 84.2249C175.677 85.8269 178.463 87.6553 181.094 89.6933C181.427 89.9543 181.671 90.3126 181.791 90.7184C181.912 91.1241 181.903 91.5574 181.766 91.958C181.63 92.3586 181.372 92.7068 181.028 92.9542C180.685 93.2016 180.273 93.3361 179.85 93.3389ZM162.837 84.5143C162.69 84.5154 162.544 84.4959 162.403 84.4564C159.043 83.7967 155.81 82.6051 152.826 80.9265C152.362 80.6541 152.025 80.2084 151.889 79.6875C151.753 79.1666 151.83 78.6132 152.102 78.1489C152.375 77.6847 152.821 77.3476 153.341 77.212C153.862 77.0763 154.416 77.1532 154.88 77.4256C157.501 78.8778 160.331 79.9125 163.271 80.4925C163.531 80.5476 163.778 80.6533 163.997 80.8038C164.217 80.9543 164.404 81.1465 164.549 81.3696C164.695 81.5926 164.794 81.842 164.843 82.1036C164.892 82.3651 164.888 82.6337 164.833 82.894C164.737 83.3522 164.486 83.7632 164.122 84.0583C163.759 84.3533 163.305 84.5143 162.837 84.5143ZM147.01 74.648C146.66 74.6504 146.315 74.5608 146.011 74.3882C145.706 74.2155 145.452 73.9659 145.274 73.6643C143.514 70.6613 142.336 67.3533 141.802 63.9137C141.71 63.3842 141.832 62.8399 142.141 62.4004C142.451 61.9609 142.922 61.6622 143.451 61.5701C143.981 61.478 144.525 61.6001 144.965 61.9093C145.404 62.2186 145.703 62.6898 145.795 63.2193C146.23 66.1485 147.222 68.9672 148.717 71.5232C148.909 71.8311 149.015 72.1847 149.023 72.5473C149.031 72.9099 148.942 73.2681 148.765 73.5844C148.587 73.9007 148.328 74.1636 148.014 74.3456C147.701 74.5276 147.344 74.6221 146.981 74.6191L147.01 74.648ZM142.902 56.0149C142.384 56.0158 141.886 55.8183 141.509 55.4632C141.132 55.1081 140.906 54.6222 140.876 54.1053C140.877 51.0895 140.448 48.0889 139.603 45.1939C139.428 44.6911 139.455 44.1396 139.68 43.6569C139.905 43.1742 140.31 42.7985 140.808 42.6099C141.306 42.4212 141.858 42.4345 142.347 42.647C142.835 42.8594 143.221 43.2542 143.422 43.7472C144.427 47.0294 144.943 50.4414 144.956 53.8739C144.972 54.1399 144.935 54.4065 144.847 54.6582C144.759 54.9099 144.623 55.1419 144.446 55.3408C144.268 55.5397 144.053 55.7016 143.813 55.8173C143.573 55.933 143.312 56.0002 143.046 56.0149H142.931H142.902ZM105.346 42.8503C104.863 42.8554 104.395 42.6852 104.028 42.3713C103.661 42.0574 103.42 41.6211 103.35 41.1432C103.266 40.6105 103.395 40.0661 103.709 39.6277C104.023 39.1892 104.497 38.8918 105.028 38.7996C108.413 38.2499 111.654 37.7869 114.663 37.4397C115.2 37.3783 115.739 37.5328 116.163 37.8693C116.586 38.2057 116.858 38.6964 116.92 39.2336C116.981 39.7707 116.826 40.3103 116.49 40.7335C116.154 41.1567 115.663 41.429 115.126 41.4904C112.174 41.8376 108.992 42.2716 105.664 42.8213H105.317L105.346 42.8503ZM134.106 41.2589C133.98 41.259 133.854 41.2493 133.73 41.23C131.434 40.8621 129.111 40.6879 126.786 40.7092C126.062 40.7092 125.31 40.7092 124.558 40.7381C124.29 40.7476 124.023 40.7043 123.772 40.6105C123.521 40.5168 123.291 40.3745 123.094 40.1918C122.898 40.0091 122.74 39.7896 122.629 39.5457C122.517 39.3019 122.455 39.0385 122.446 38.7707C122.436 38.5028 122.48 38.2357 122.573 37.9846C122.667 37.7334 122.809 37.5032 122.992 37.3071C123.175 37.111 123.394 36.9528 123.638 36.8415C123.882 36.7302 124.145 36.668 124.413 36.6585C125.252 36.6585 126.062 36.6296 126.873 36.6296C129.411 36.6031 131.948 36.7967 134.453 37.2083C134.951 37.3011 135.398 37.5759 135.705 37.9793C136.012 38.3827 136.158 38.8858 136.114 39.3909C136.071 39.8959 135.841 40.3669 135.47 40.7121C135.099 41.0573 134.613 41.2523 134.106 41.2589Z" fill="#825129"/>
<path d="M91.2557 107.227C90.7812 107.228 90.3211 107.064 89.9537 106.764C89.9537 106.764 88.507 105.578 86.2792 103.871C85.8494 103.541 85.5684 103.053 85.4979 102.516C85.4273 101.979 85.5731 101.436 85.903 101.006C86.233 100.576 86.7202 100.295 87.2573 100.225C87.7945 100.154 88.3377 100.3 88.7674 100.63C91.0532 102.395 92.5288 103.61 92.5288 103.61C92.9428 103.954 93.205 104.448 93.2592 104.983C93.3133 105.519 93.1549 106.055 92.8181 106.475C92.6296 106.708 92.3917 106.896 92.1215 107.026C91.8513 107.157 91.5556 107.225 91.2557 107.227Z" fill="#825129"/>
</svg>
